<?xml version="1.0" encoding="UTF-8" standalone="no"?>
<!DOCTYPE svg PUBLIC "-//W3C//DTD SVG 1.1//EN"
 "http://www.w3.org/Graphics/SVG/1.1/DTD/svg11.dtd">
<!-- Generated by graphviz version 2.47.3 (20210619.1520)
 -->
<!-- Title: dependencies Pages: 1 -->
<svg width="1572pt" height="247pt"
 viewBox="0.00 0.00 1572.00 246.80" xmlns="http://www.w3.org/2000/svg" xmlns:xlink="http://www.w3.org/1999/xlink">
<g id="graph0" class="graph" transform="scale(1 1) rotate(0) translate(4 242.8)">
<title>dependencies</title>
<polygon fill="white" stroke="transparent" points="-4,4 -4,-242.8 1568,-242.8 1568,4 -4,4"/>
<text text-anchor="middle" x="782" y="-8.2" font-family="sans-serif" font-size="14.00">dependencies</text>
<g id="clust1" class="cluster">
<title>cluster_AppModule</title>
<polygon fill="none" stroke="black" stroke-dasharray="1,5" points="8,-32.8 8,-230.8 1556,-230.8 1556,-32.8 8,-32.8"/>
</g>
<g id="clust11" class="cluster">
<title>cluster_AppModule_imports</title>
<polygon fill="none" stroke="black" points="1404,-40.8 1404,-92.8 1548,-92.8 1548,-40.8 1404,-40.8"/>
</g>
<g id="clust13" class="cluster">
<title>cluster_AppModule_bootstrap</title>
<polygon fill="none" stroke="black" points="760,-170.8 760,-222.8 884,-222.8 884,-170.8 760,-170.8"/>
</g>
<g id="clust2" class="cluster">
<title>cluster_AppModule_declarations</title>
<polygon fill="none" stroke="black" points="16,-40.8 16,-92.8 1396,-92.8 1396,-40.8 16,-40.8"/>
</g>
<!-- AppComponent -->
<g id="node1" class="node">
<title>AppComponent</title>
<polygon fill="#ffffb3" stroke="black" points="1387.94,-84.8 1282.06,-84.8 1282.06,-48.8 1387.94,-48.8 1387.94,-84.8"/>
<text text-anchor="middle" x="1335" y="-62.6" font-family="Times,serif" font-size="14.00">AppComponent</text>
</g>
<!-- AppModule -->
<g id="node9" class="node">
<title>AppModule</title>
<polygon fill="#8dd3c7" stroke="black" points="863.66,-149.8 860.66,-153.8 839.66,-153.8 836.66,-149.8 780.34,-149.8 780.34,-113.8 863.66,-113.8 863.66,-149.8"/>
<text text-anchor="middle" x="822" y="-127.6" font-family="Times,serif" font-size="14.00">AppModule</text>
</g>
<!-- AppComponent&#45;&gt;AppModule -->
<g id="edge1" class="edge">
<title>AppComponent&#45;&gt;AppModule</title>
<path fill="none" stroke="black" d="M1335,-84.93C1335,-105.37 1335,-135.8 1335,-135.8 1335,-135.8 873.98,-135.8 873.98,-135.8"/>
<polygon fill="black" stroke="black" points="873.98,-132.3 863.98,-135.8 873.98,-139.3 873.98,-132.3"/>
</g>
<!-- CableDetailsComponent -->
<g id="node2" class="node">
<title>CableDetailsComponent</title>
<polygon fill="#ffffb3" stroke="black" points="1263.64,-84.8 1110.36,-84.8 1110.36,-48.8 1263.64,-48.8 1263.64,-84.8"/>
<text text-anchor="middle" x="1187" y="-62.6" font-family="Times,serif" font-size="14.00">CableDetailsComponent</text>
</g>
<!-- CableDetailsComponent&#45;&gt;AppModule -->
<g id="edge2" class="edge">
<title>CableDetailsComponent&#45;&gt;AppModule</title>
<path fill="none" stroke="black" d="M1187,-85.07C1187,-103.36 1187,-128.8 1187,-128.8 1187,-128.8 873.87,-128.8 873.87,-128.8"/>
<polygon fill="black" stroke="black" points="873.87,-125.3 863.87,-128.8 873.87,-132.3 873.87,-125.3"/>
</g>
<!-- CableEditorTabsComponent -->
<g id="node3" class="node">
<title>CableEditorTabsComponent</title>
<polygon fill="#ffffb3" stroke="black" points="1092.2,-84.8 915.8,-84.8 915.8,-48.8 1092.2,-48.8 1092.2,-84.8"/>
<text text-anchor="middle" x="1004" y="-62.6" font-family="Times,serif" font-size="14.00">CableEditorTabsComponent</text>
</g>
<!-- CableEditorTabsComponent&#45;&gt;AppModule -->
<g id="edge3" class="edge">
<title>CableEditorTabsComponent&#45;&gt;AppModule</title>
<path fill="none" stroke="black" d="M1004,-84.81C1004,-100.85 1004,-121.8 1004,-121.8 1004,-121.8 873.75,-121.8 873.75,-121.8"/>
<polygon fill="black" stroke="black" points="873.75,-118.3 863.75,-121.8 873.75,-125.3 873.75,-118.3"/>
</g>
<!-- CableSearchComponent -->
<g id="node4" class="node">
<title>CableSearchComponent</title>
<polygon fill="#ffffb3" stroke="black" points="898.08,-84.8 745.92,-84.8 745.92,-48.8 898.08,-48.8 898.08,-84.8"/>
<text text-anchor="middle" x="822" y="-62.6" font-family="Times,serif" font-size="14.00">CableSearchComponent</text>
</g>
<!-- CableSearchComponent&#45;&gt;AppModule -->
<g id="edge4" class="edge">
<title>CableSearchComponent&#45;&gt;AppModule</title>
<path fill="none" stroke="black" d="M822,-84.91C822,-84.91 822,-103.79 822,-103.79"/>
<polygon fill="black" stroke="black" points="818.5,-103.79 822,-113.79 825.5,-103.79 818.5,-103.79"/>
</g>
<!-- CableSearchGridComponent -->
<g id="node5" class="node">
<title>CableSearchGridComponent</title>
<polygon fill="#ffffb3" stroke="black" points="727.73,-84.8 550.27,-84.8 550.27,-48.8 727.73,-48.8 727.73,-84.8"/>
<text text-anchor="middle" x="639" y="-62.6" font-family="Times,serif" font-size="14.00">CableSearchGridComponent</text>
</g>
<!-- CableSearchGridComponent&#45;&gt;AppModule -->
<g id="edge5" class="edge">
<title>CableSearchGridComponent&#45;&gt;AppModule</title>
<path fill="none" stroke="black" d="M639,-84.81C639,-100.85 639,-121.8 639,-121.8 639,-121.8 770.02,-121.8 770.02,-121.8"/>
<polygon fill="black" stroke="black" points="770.02,-125.3 780.02,-121.8 770.02,-118.3 770.02,-125.3"/>
</g>
<!-- CableSearchNumberRangeComponent -->
<g id="node6" class="node">
<title>CableSearchNumberRangeComponent</title>
<polygon fill="#ffffb3" stroke="black" points="531.71,-84.8 298.29,-84.8 298.29,-48.8 531.71,-48.8 531.71,-84.8"/>
<text text-anchor="middle" x="415" y="-62.6" font-family="Times,serif" font-size="14.00">CableSearchNumberRangeComponent</text>
</g>
<!-- CableSearchNumberRangeComponent&#45;&gt;AppModule -->
<g id="edge6" class="edge">
<title>CableSearchNumberRangeComponent&#45;&gt;AppModule</title>
<path fill="none" stroke="black" d="M415,-85.07C415,-103.36 415,-128.8 415,-128.8 415,-128.8 769.98,-128.8 769.98,-128.8"/>
<polygon fill="black" stroke="black" points="769.98,-132.3 779.98,-128.8 769.98,-125.3 769.98,-132.3"/>
</g>
<!-- EditorComponent -->
<g id="node7" class="node">
<title>EditorComponent</title>
<polygon fill="#ffffb3" stroke="black" points="280.33,-84.8 163.67,-84.8 163.67,-48.8 280.33,-48.8 280.33,-84.8"/>
<text text-anchor="middle" x="222" y="-62.6" font-family="Times,serif" font-size="14.00">EditorComponent</text>
</g>
<!-- EditorComponent&#45;&gt;AppModule -->
<g id="edge7" class="edge">
<title>EditorComponent&#45;&gt;AppModule</title>
<path fill="none" stroke="black" d="M222,-84.93C222,-105.37 222,-135.8 222,-135.8 222,-135.8 770.29,-135.8 770.29,-135.8"/>
<polygon fill="black" stroke="black" points="770.29,-139.3 780.29,-135.8 770.29,-132.3 770.29,-139.3"/>
</g>
<!-- HeaderComponent -->
<g id="node8" class="node">
<title>HeaderComponent</title>
<polygon fill="#ffffb3" stroke="black" points="145.74,-84.8 24.26,-84.8 24.26,-48.8 145.74,-48.8 145.74,-84.8"/>
<text text-anchor="middle" x="85" y="-62.6" font-family="Times,serif" font-size="14.00">HeaderComponent</text>
</g>
<!-- HeaderComponent&#45;&gt;AppModule -->
<g id="edge8" class="edge">
<title>HeaderComponent&#45;&gt;AppModule</title>
<path fill="none" stroke="black" d="M85,-84.81C85,-107.29 85,-142.8 85,-142.8 85,-142.8 770.26,-142.8 770.26,-142.8"/>
<polygon fill="black" stroke="black" points="770.26,-146.3 780.26,-142.8 770.26,-139.3 770.26,-146.3"/>
</g>
<!-- AppComponent  -->
<g id="node11" class="node">
<title>AppComponent </title>
<polygon fill="#80b1d3" stroke="black" points="876.44,-214.8 767.56,-214.8 767.56,-178.8 876.44,-178.8 876.44,-214.8"/>
<text text-anchor="middle" x="822" y="-192.6" font-family="Times,serif" font-size="14.00">AppComponent </text>
</g>
<!-- AppModule&#45;&gt;AppComponent  -->
<g id="edge10" class="edge">
<title>AppModule&#45;&gt;AppComponent </title>
<path fill="none" stroke="black" stroke-dasharray="1,5" d="M822,-149.91C822,-149.91 822,-168.79 822,-168.79"/>
<polygon fill="black" stroke="black" points="818.5,-168.79 822,-178.79 825.5,-168.79 818.5,-168.79"/>
</g>
<!-- AppRoutingModule -->
<g id="node10" class="node">
<title>AppRoutingModule</title>
<polygon fill="#8dd3c7" stroke="black" points="1540.27,-84.8 1537.27,-88.8 1516.27,-88.8 1513.27,-84.8 1411.73,-84.8 1411.73,-48.8 1540.27,-48.8 1540.27,-84.8"/>
<text text-anchor="middle" x="1476" y="-62.6" font-family="Times,serif" font-size="14.00">AppRoutingModule</text>
</g>
<!-- AppRoutingModule&#45;&gt;AppModule -->
<g id="edge9" class="edge">
<title>AppRoutingModule&#45;&gt;AppModule</title>
<path fill="none" stroke="black" d="M1476,-84.81C1476,-107.29 1476,-142.8 1476,-142.8 1476,-142.8 873.91,-142.8 873.91,-142.8"/>
<polygon fill="black" stroke="black" points="873.91,-139.3 863.91,-142.8 873.91,-146.3 873.91,-139.3"/>
</g>
</g>
</svg>
