<?xml version="1.0" encoding="UTF-8" standalone="no"?>
<!DOCTYPE svg PUBLIC "-//W3C//DTD SVG 1.1//EN"
 "http://www.w3.org/Graphics/SVG/1.1/DTD/svg11.dtd">
<!-- Generated by graphviz version 2.47.3 (20210619.1520)
 -->
<!-- Title: dependencies Pages: 1 -->
<svg width="1572pt" height="247pt"
 viewBox="0.00 0.00 1572.00 246.80" xmlns="http://www.w3.org/2000/svg" xmlns:xlink="http://www.w3.org/1999/xlink">
<g id="graph0" class="graph" transform="scale(1 1) rotate(0) translate(4 242.8)">
<title>dependencies</title>
<polygon fill="white" stroke="transparent" points="-4,4 -4,-242.8 1568,-242.8 1568,4 -4,4"/>
<text text-anchor="middle" x="782" y="-8.2" font-family="sans-serif" font-size="14.00">dependencies</text>
<g id="clust1" class="cluster">
<title>cluster_AppModule</title>
<polygon fill="none" stroke="black" stroke-dasharray="1,5" points="8,-32.8 8,-230.8 1556,-230.8 1556,-32.8 8,-32.8"/>
</g>
<g id="clust2" class="cluster">
<title>cluster_AppModule_declarations</title>
<polygon fill="none" stroke="black" points="168,-40.8 168,-92.8 1548,-92.8 1548,-40.8 168,-40.8"/>
</g>
<g id="clust11" class="cluster">
<title>cluster_AppModule_imports</title>
<polygon fill="none" stroke="black" points="16,-40.8 16,-92.8 160,-92.8 160,-40.8 16,-40.8"/>
</g>
<g id="clust13" class="cluster">
<title>cluster_AppModule_bootstrap</title>
<polygon fill="none" stroke="black" points="729,-170.8 729,-222.8 853,-222.8 853,-170.8 729,-170.8"/>
</g>
<!-- AppComponent -->
<g id="node1" class="node">
<title>AppComponent</title>
<polygon fill="#ffffb3" stroke="black" points="1539.94,-84.8 1434.06,-84.8 1434.06,-48.8 1539.94,-48.8 1539.94,-84.8"/>
<text text-anchor="middle" x="1487" y="-62.6" font-family="Times,serif" font-size="14.00">AppComponent</text>
</g>
<!-- AppModule -->
<g id="node9" class="node">
<title>AppModule</title>
<polygon fill="#8dd3c7" stroke="black" points="832.66,-149.8 829.66,-153.8 808.66,-153.8 805.66,-149.8 749.34,-149.8 749.34,-113.8 832.66,-113.8 832.66,-149.8"/>
<text text-anchor="middle" x="791" y="-127.6" font-family="Times,serif" font-size="14.00">AppModule</text>
</g>
<!-- AppComponent&#45;&gt;AppModule -->
<g id="edge1" class="edge">
<title>AppComponent&#45;&gt;AppModule</title>
<path fill="none" stroke="black" d="M1487,-84.81C1487,-107.29 1487,-142.8 1487,-142.8 1487,-142.8 842.71,-142.8 842.71,-142.8"/>
<polygon fill="black" stroke="black" points="842.71,-139.3 832.71,-142.8 842.71,-146.3 842.71,-139.3"/>
</g>
<!-- CableDetailsComponent -->
<g id="node2" class="node">
<title>CableDetailsComponent</title>
<polygon fill="#ffffb3" stroke="black" points="1415.64,-84.8 1262.36,-84.8 1262.36,-48.8 1415.64,-48.8 1415.64,-84.8"/>
<text text-anchor="middle" x="1339" y="-62.6" font-family="Times,serif" font-size="14.00">CableDetailsComponent</text>
</g>
<!-- CableDetailsComponent&#45;&gt;AppModule -->
<g id="edge2" class="edge">
<title>CableDetailsComponent&#45;&gt;AppModule</title>
<path fill="none" stroke="black" d="M1339,-84.93C1339,-105.37 1339,-135.8 1339,-135.8 1339,-135.8 843.09,-135.8 843.09,-135.8"/>
<polygon fill="black" stroke="black" points="843.09,-132.3 833.09,-135.8 843.09,-139.3 843.09,-132.3"/>
</g>
<!-- CableEditorTabsComponent -->
<g id="node3" class="node">
<title>CableEditorTabsComponent</title>
<polygon fill="#ffffb3" stroke="black" points="1244.2,-84.8 1067.8,-84.8 1067.8,-48.8 1244.2,-48.8 1244.2,-84.8"/>
<text text-anchor="middle" x="1156" y="-62.6" font-family="Times,serif" font-size="14.00">CableEditorTabsComponent</text>
</g>
<!-- CableEditorTabsComponent&#45;&gt;AppModule -->
<g id="edge3" class="edge">
<title>CableEditorTabsComponent&#45;&gt;AppModule</title>
<path fill="none" stroke="black" d="M1156,-85.07C1156,-103.36 1156,-128.8 1156,-128.8 1156,-128.8 842.87,-128.8 842.87,-128.8"/>
<polygon fill="black" stroke="black" points="842.87,-125.3 832.87,-128.8 842.87,-132.3 842.87,-125.3"/>
</g>
<!-- CableSearchComponent -->
<g id="node4" class="node">
<title>CableSearchComponent</title>
<polygon fill="#ffffb3" stroke="black" points="1050.08,-84.8 897.92,-84.8 897.92,-48.8 1050.08,-48.8 1050.08,-84.8"/>
<text text-anchor="middle" x="974" y="-62.6" font-family="Times,serif" font-size="14.00">CableSearchComponent</text>
</g>
<!-- CableSearchComponent&#45;&gt;AppModule -->
<g id="edge4" class="edge">
<title>CableSearchComponent&#45;&gt;AppModule</title>
<path fill="none" stroke="black" d="M974,-84.81C974,-100.85 974,-121.8 974,-121.8 974,-121.8 842.98,-121.8 842.98,-121.8"/>
<polygon fill="black" stroke="black" points="842.98,-118.3 832.98,-121.8 842.98,-125.3 842.98,-118.3"/>
</g>
<!-- CableSearchGridComponent -->
<g id="node5" class="node">
<title>CableSearchGridComponent</title>
<polygon fill="#ffffb3" stroke="black" points="879.73,-84.8 702.27,-84.8 702.27,-48.8 879.73,-48.8 879.73,-84.8"/>
<text text-anchor="middle" x="791" y="-62.6" font-family="Times,serif" font-size="14.00">CableSearchGridComponent</text>
</g>
<!-- CableSearchGridComponent&#45;&gt;AppModule -->
<g id="edge5" class="edge">
<title>CableSearchGridComponent&#45;&gt;AppModule</title>
<path fill="none" stroke="black" d="M791,-84.91C791,-84.91 791,-103.79 791,-103.79"/>
<polygon fill="black" stroke="black" points="787.5,-103.79 791,-113.79 794.5,-103.79 787.5,-103.79"/>
</g>
<!-- CableSearchNumberRangeComponent -->
<g id="node6" class="node">
<title>CableSearchNumberRangeComponent</title>
<polygon fill="#ffffb3" stroke="black" points="683.71,-84.8 450.29,-84.8 450.29,-48.8 683.71,-48.8 683.71,-84.8"/>
<text text-anchor="middle" x="567" y="-62.6" font-family="Times,serif" font-size="14.00">CableSearchNumberRangeComponent</text>
</g>
<!-- CableSearchNumberRangeComponent&#45;&gt;AppModule -->
<g id="edge6" class="edge">
<title>CableSearchNumberRangeComponent&#45;&gt;AppModule</title>
<path fill="none" stroke="black" d="M567,-84.81C567,-100.85 567,-121.8 567,-121.8 567,-121.8 739.13,-121.8 739.13,-121.8"/>
<polygon fill="black" stroke="black" points="739.13,-125.3 749.13,-121.8 739.13,-118.3 739.13,-125.3"/>
</g>
<!-- EditorComponent -->
<g id="node7" class="node">
<title>EditorComponent</title>
<polygon fill="#ffffb3" stroke="black" points="432.33,-84.8 315.67,-84.8 315.67,-48.8 432.33,-48.8 432.33,-84.8"/>
<text text-anchor="middle" x="374" y="-62.6" font-family="Times,serif" font-size="14.00">EditorComponent</text>
</g>
<!-- EditorComponent&#45;&gt;AppModule -->
<g id="edge7" class="edge">
<title>EditorComponent&#45;&gt;AppModule</title>
<path fill="none" stroke="black" d="M374,-85.07C374,-103.36 374,-128.8 374,-128.8 374,-128.8 739.11,-128.8 739.11,-128.8"/>
<polygon fill="black" stroke="black" points="739.11,-132.3 749.11,-128.8 739.11,-125.3 739.11,-132.3"/>
</g>
<!-- HeaderComponent -->
<g id="node8" class="node">
<title>HeaderComponent</title>
<polygon fill="#ffffb3" stroke="black" points="297.74,-84.8 176.26,-84.8 176.26,-48.8 297.74,-48.8 297.74,-84.8"/>
<text text-anchor="middle" x="237" y="-62.6" font-family="Times,serif" font-size="14.00">HeaderComponent</text>
</g>
<!-- HeaderComponent&#45;&gt;AppModule -->
<g id="edge8" class="edge">
<title>HeaderComponent&#45;&gt;AppModule</title>
<path fill="none" stroke="black" d="M237,-84.93C237,-105.37 237,-135.8 237,-135.8 237,-135.8 738.91,-135.8 738.91,-135.8"/>
<polygon fill="black" stroke="black" points="738.91,-139.3 748.91,-135.8 738.91,-132.3 738.91,-139.3"/>
</g>
<!-- AppComponent  -->
<g id="node11" class="node">
<title>AppComponent </title>
<polygon fill="#80b1d3" stroke="black" points="845.44,-214.8 736.56,-214.8 736.56,-178.8 845.44,-178.8 845.44,-214.8"/>
<text text-anchor="middle" x="791" y="-192.6" font-family="Times,serif" font-size="14.00">AppComponent </text>
</g>
<!-- AppModule&#45;&gt;AppComponent  -->
<g id="edge10" class="edge">
<title>AppModule&#45;&gt;AppComponent </title>
<path fill="none" stroke="black" stroke-dasharray="1,5" d="M791,-149.91C791,-149.91 791,-168.79 791,-168.79"/>
<polygon fill="black" stroke="black" points="787.5,-168.79 791,-178.79 794.5,-168.79 787.5,-168.79"/>
</g>
<!-- AppRoutingModule -->
<g id="node10" class="node">
<title>AppRoutingModule</title>
<polygon fill="#8dd3c7" stroke="black" points="152.27,-84.8 149.27,-88.8 128.27,-88.8 125.27,-84.8 23.73,-84.8 23.73,-48.8 152.27,-48.8 152.27,-84.8"/>
<text text-anchor="middle" x="88" y="-62.6" font-family="Times,serif" font-size="14.00">AppRoutingModule</text>
</g>
<!-- AppRoutingModule&#45;&gt;AppModule -->
<g id="edge9" class="edge">
<title>AppRoutingModule&#45;&gt;AppModule</title>
<path fill="none" stroke="black" d="M88,-84.81C88,-107.29 88,-142.8 88,-142.8 88,-142.8 739.13,-142.8 739.13,-142.8"/>
<polygon fill="black" stroke="black" points="739.13,-146.3 749.13,-142.8 739.13,-139.3 739.13,-146.3"/>
</g>
</g>
</svg>
